<svg width="30" height="29" viewBox="0 0 30 29" fill="none" xmlns="http://www.w3.org/2000/svg">
<g clip-path="url(#clip0_417_2473)">
<path d="M17.4046 14.2579L14.0356 12.7383C13.7416 12.6064 13.5001 12.7543 13.5001 13.0689V15.9312C13.5001 16.2459 13.7416 16.3938 14.0356 16.2618L17.4031 14.7422C17.6986 14.6088 17.6986 14.3913 17.4046 14.2579ZM15.0001 0.580078C7.0471 0.580078 0.600098 6.81218 0.600098 14.5001C0.600098 22.188 7.0471 28.4201 15.0001 28.4201C22.9531 28.4201 29.4001 22.188 29.4001 14.5001C29.4001 6.81218 22.9531 0.580078 15.0001 0.580078ZM15.0001 20.1551C7.6291 20.1551 7.5001 19.5127 7.5001 14.5001C7.5001 9.48743 7.6291 8.84508 15.0001 8.84508C22.3711 8.84508 22.5001 9.48743 22.5001 14.5001C22.5001 19.5127 22.3711 20.1551 15.0001 20.1551Z" fill="#E73B3B"/>
</g>
<defs>
<clipPath id="clip0_417_2473">
<rect width="30" height="29" fill="white"/>
</clipPath>
</defs>
</svg>
