<svg width="110" height="37" viewBox="0 0 110 37" fill="none" xmlns="http://www.w3.org/2000/svg">
<path d="M-0.00106528 22V1.63636H12.6268V4.28125H3.07138V10.4858H11.7219V13.1207H3.07138V22H-0.00106528ZM32.8189 22V6.72727H35.6925V9.15341H35.8516C36.13 8.33144 36.6205 7.68513 37.3232 7.21449C38.0324 6.73722 38.8345 6.49858 39.7294 6.49858C39.915 6.49858 40.1338 6.50521 40.3857 6.51847C40.6442 6.53172 40.8464 6.54829 40.9922 6.56818V9.41193C40.8729 9.37879 40.6607 9.34233 40.3558 9.30256C40.0509 9.25615 39.746 9.23295 39.4411 9.23295C38.7384 9.23295 38.112 9.3821 37.5618 9.6804C37.0182 9.97206 36.5874 10.3797 36.2692 10.9034C35.951 11.4205 35.7919 12.0104 35.7919 12.6733V22H32.8189ZM51.2138 22V1.63636H63.9808V4.28125H54.2862V10.4858H63.3146V13.1207H54.2862V19.3551H64.1001V22H51.2138ZM70.8192 1.63636V22H67.8462V1.63636H70.8192ZM74.8189 22V6.72727H77.7919V22H74.8189ZM76.3203 4.37074C75.8033 4.37074 75.3591 4.19839 74.9879 3.85369C74.6233 3.50237 74.4411 3.08475 74.4411 2.60085C74.4411 2.11032 74.6233 1.69271 74.9879 1.34801C75.3591 0.996685 75.8033 0.821022 76.3203 0.821022C76.8374 0.821022 77.2782 0.996685 77.6428 1.34801C78.014 1.69271 78.1996 2.11032 78.1996 2.60085C78.1996 3.08475 78.014 3.50237 77.6428 3.85369C77.2782 4.19839 76.8374 4.37074 76.3203 4.37074ZM93.2362 10.456L90.5415 10.9332C90.4289 10.5885 90.2499 10.2604 90.0046 9.94886C89.766 9.63731 89.4412 9.3821 89.0302 9.18324C88.6192 8.98437 88.1055 8.88494 87.489 8.88494C86.6471 8.88494 85.9445 9.07386 85.381 9.4517C84.8176 9.82292 84.5359 10.3035 84.5359 10.8935C84.5359 11.4039 84.7248 11.8149 85.1026 12.1264C85.4805 12.438 86.0903 12.6932 86.9322 12.892L89.3583 13.4489C90.7636 13.7737 91.811 14.2741 92.5004 14.9503C93.1897 15.6264 93.5344 16.5047 93.5344 17.5852C93.5344 18.5 93.2693 19.3153 92.739 20.0312C92.2153 20.7405 91.4828 21.2973 90.5415 21.7017C89.6069 22.1061 88.5231 22.3082 87.2901 22.3082C85.5799 22.3082 84.1845 21.9437 83.104 21.2145C82.0236 20.4787 81.3607 19.4347 81.1154 18.0824L83.989 17.6449C84.168 18.3939 84.5359 18.9607 85.0927 19.3452C85.6495 19.723 86.3754 19.9119 87.2702 19.9119C88.2447 19.9119 89.0236 19.7098 89.6069 19.3054C90.1902 18.8944 90.4819 18.3939 90.4819 17.804C90.4819 17.3267 90.3029 16.9257 89.945 16.6009C89.5936 16.276 89.0534 16.0308 88.3242 15.8651L85.739 15.2983C84.3138 14.9735 83.2598 14.4564 82.5771 13.7472C81.9009 13.0379 81.5629 12.1397 81.5629 11.0526C81.5629 10.151 81.8147 9.36222 82.3185 8.68608C82.8223 8.00994 83.5183 7.48295 84.4066 7.10511C85.2949 6.72064 86.3124 6.52841 87.4592 6.52841C89.1097 6.52841 90.409 6.88636 91.3569 7.60227C92.3048 8.31155 92.9312 9.26278 93.2362 10.456ZM103.386 22.3082C101.881 22.3082 100.585 21.9867 99.4979 21.3438C98.4174 20.6941 97.5821 19.7827 96.9922 18.6094C96.4089 17.4295 96.1172 16.0473 96.1172 14.4631C96.1172 12.8987 96.4089 11.5199 96.9922 10.3267C97.5821 9.13352 98.4041 8.20218 99.4581 7.53267C100.519 6.86316 101.758 6.52841 103.177 6.52841C104.039 6.52841 104.874 6.67093 105.683 6.95597C106.491 7.241 107.217 7.68845 107.86 8.2983C108.503 8.90814 109.01 9.70028 109.381 10.6747C109.753 11.6425 109.938 12.8191 109.938 14.2045V15.2585H97.7976V13.0312H107.025C107.025 12.2491 106.866 11.5563 106.548 10.9531C106.229 10.3433 105.782 9.86269 105.205 9.51136C104.635 9.16004 103.966 8.98438 103.197 8.98438C102.362 8.98438 101.632 9.18987 101.009 9.60085C100.393 10.0052 99.9155 10.5355 99.5774 11.1918C99.246 11.8414 99.0803 12.5473 99.0803 13.3097V15.0497C99.0803 16.0705 99.2592 16.9389 99.6172 17.6548C99.9818 18.3707 100.489 18.9176 101.138 19.2955C101.788 19.6667 102.547 19.8523 103.415 19.8523C103.979 19.8523 104.493 19.7727 104.957 19.6136C105.421 19.4479 105.822 19.2027 106.16 18.8778C106.498 18.553 106.756 18.152 106.935 17.6747L109.749 18.1818C109.524 19.0104 109.12 19.7363 108.536 20.3594C107.96 20.9759 107.234 21.4564 106.359 21.8011C105.49 22.1392 104.499 22.3082 103.386 22.3082Z" fill="#A7D87D"/>
<path d="M25.8413 15.6662V6.72727H28.8242V22H25.9009V19.3551H25.7418C25.3905 20.1705 24.8271 20.8499 24.0515 21.3935C23.2826 21.9304 22.3247 22.1989 21.1779 22.1989C20.1969 22.1989 19.3285 21.9834 18.5728 21.5526C17.8237 21.1151 17.2338 20.4688 16.8029 19.6136C16.3787 18.7585 16.1665 17.7012 16.1665 16.4418V6.72727H19.1396V16.0838C19.1396 17.1245 19.4279 17.9531 20.0046 18.5696C20.5813 19.1861 21.3304 19.4943 22.2518 19.4943C22.8086 19.4943 23.3621 19.3551 23.9123 19.0767C24.4691 18.7983 24.9298 18.3774 25.2944 17.8139C25.6656 17.2505 25.8479 16.5346 25.8413 15.6662ZM19.5969 4.33097C19.1263 4.33097 18.7153 4.15862 18.364 3.81392C18.0127 3.46259 17.837 3.05824 17.837 2.60085C17.837 2.10369 18.0127 1.68939 18.364 1.35795C18.7153 1.02651 19.1263 0.860795 19.5969 0.860795C20.0941 0.860795 20.5084 1.02651 20.8398 1.35795C21.1779 1.68939 21.3469 2.10369 21.3469 2.60085C21.3469 3.05824 21.1779 3.46259 20.8398 3.81392C20.5084 4.15862 20.0941 4.33097 19.5969 4.33097ZM25.4435 4.33097C24.9729 4.33097 24.5619 4.15862 24.2106 3.81392C23.8593 3.46259 23.6836 3.05824 23.6836 2.60085C23.6836 2.10369 23.8593 1.68939 24.2106 1.35795C24.5619 1.02651 24.9729 0.860795 25.4435 0.860795C25.9407 0.860795 26.355 1.02651 26.6864 1.35795C27.0245 1.68939 27.1935 2.10369 27.1935 2.60085C27.1935 3.05824 27.0245 3.46259 26.6864 3.81392C26.355 4.15862 25.9407 4.33097 25.4435 4.33097Z" fill="#FFC2A0"/>
<path d="M7.46 30.9H10.79V31.59H7.46V30.9ZM7.41 35.55H11.01V36.23H7.41V35.55ZM9.05 28.47C8.5 29.46 7.48 30.74 6.4 31.6C6.31 31.4 6.11 31.12 5.96 30.96C7.04 30.13 8.13 28.76 8.65 27.7H9.38C10.09 28.83 11.21 30.12 12.22 30.86C12.05 31.04 11.87 31.32 11.75 31.54C10.77 30.73 9.65 29.45 9.05 28.47ZM7.03 32.79H11.33V36.76H10.61V33.47H7.72V36.8H7.03V32.79ZM4.35 27.61L5.01 27.87C4.63 28.6 4.16 29.49 3.77 30.04L3.25 29.8C3.63 29.23 4.09 28.27 4.35 27.61ZM5.47 28.75L6.1 29.03C5.42 30.18 4.46 31.63 3.72 32.51L3.26 32.25C4 31.35 4.94 29.83 5.47 28.75ZM2.77 29.71L3.15 29.22C3.71 29.69 4.34 30.34 4.61 30.79L4.21 31.36C3.94 30.89 3.31 30.19 2.77 29.71ZM5.12 31.07L5.64 30.86C6.05 31.5 6.45 32.36 6.59 32.91L6.03 33.17C5.89 32.61 5.52 31.73 5.12 31.07ZM2.74 32.09C3.61 32.06 4.86 32.01 6.13 31.94L6.12 32.56C4.92 32.64 3.71 32.71 2.8 32.77L2.74 32.09ZM5.38 33.43L5.92 33.26C6.2 33.82 6.47 34.58 6.57 35.08L5.99 35.28C5.9 34.78 5.63 34.01 5.38 33.43ZM3.3 33.32L3.95 33.44C3.81 34.38 3.56 35.35 3.24 35.99C3.11 35.91 2.81 35.77 2.65 35.7C2.98 35.09 3.18 34.2 3.3 33.32ZM4.38 32.37H5.05V36.83H4.38V32.37ZM34.58 29.94H43.01V31.75H42.27V30.54H35.3V31.68H34.58V29.94ZM41.99 27.6L42.49 28.12C40.59 28.51 37.56 28.71 35.06 28.77C35.05 28.61 34.97 28.35 34.91 28.2C37.36 28.13 40.37 27.93 41.99 27.6ZM35.81 28.87L36.41 28.62C36.72 28.97 37.02 29.45 37.14 29.8L36.49 30.07C36.39 29.74 36.1 29.23 35.81 28.87ZM37.99 28.68L38.61 28.46C38.89 28.84 39.16 29.36 39.24 29.72L38.58 29.95C38.51 29.61 38.26 29.07 37.99 28.68ZM40.67 31.38L41.19 31.02C41.77 31.46 42.45 32.11 42.76 32.56L42.21 32.97C41.91 32.52 41.24 31.84 40.67 31.38ZM37.86 30.86L38.24 30.45C38.76 30.67 39.42 31.02 39.74 31.29L39.35 31.74C39.02 31.47 38.39 31.09 37.86 30.86ZM41.35 28.45L42.07 28.73C41.71 29.26 41.28 29.84 40.94 30.23L40.39 29.99C40.7 29.57 41.13 28.91 41.35 28.45ZM40.75 33.54H40.92L41.05 33.52L41.52 33.83C40.25 35.69 37.52 36.48 34.73 36.83C34.66 36.65 34.47 36.35 34.33 36.2C37.08 35.94 39.7 35.21 40.75 33.66V33.54ZM37.02 33.94C38.17 35.24 40.61 35.94 43.31 36.15C43.15 36.31 42.97 36.62 42.87 36.82C40.15 36.54 37.71 35.74 36.43 34.19L37.02 33.94ZM37.7 32.71L38.36 32.95C37.53 33.96 36.21 34.82 35 35.36C34.88 35.22 34.62 34.97 34.47 34.86C35.71 34.38 36.98 33.61 37.7 32.71ZM37.05 31.13H37.75V32.08C37.75 32.29 37.82 32.32 38.24 32.32C38.43 32.32 39.44 32.32 39.71 32.32C40.02 32.32 40.09 32.25 40.12 31.66C40.27 31.76 40.53 31.84 40.72 31.88C40.65 32.69 40.45 32.88 39.8 32.88C39.6 32.88 38.36 32.88 38.18 32.88C37.27 32.88 37.05 32.73 37.05 32.09V31.13ZM36.07 31.14L36.65 31.38C36.41 32.03 36.03 32.7 35.37 33.09L34.84 32.66C35.44 32.33 35.85 31.74 36.07 31.14ZM37.24 33.54H40.92V34.1H36.68L37.24 33.54ZM66.7 31.04H74.53V31.59H66.7V31.04ZM66.37 31.04H67.07V32.78C67.07 33.97 66.9 35.69 66.08 36.84C65.96 36.7 65.66 36.47 65.51 36.39C66.27 35.31 66.37 33.83 66.37 32.76V31.04ZM69.94 30.46H70.59V31.34H69.94V30.46ZM68.74 31.48H69.42V33.64H68.74V31.48ZM71.16 31.48H71.84V33.64H71.16V31.48ZM68.14 34.56H70.56V35.1H68.14V34.56ZM66.83 36.11C67.78 36.03 69.23 35.9 70.65 35.74L70.66 36.3C69.3 36.45 67.89 36.6 66.89 36.7L66.83 36.11ZM73.94 34.16L74.43 34.6C73.63 34.88 72.49 35.13 71.53 35.28C71.5 35.15 71.42 34.95 71.34 34.82C72.26 34.65 73.34 34.4 73.94 34.16ZM70.99 33.85H71.7V35.83C71.7 36.08 71.78 36.13 72.21 36.13C72.42 36.13 73.5 36.13 73.77 36.13C74.13 36.13 74.19 35.99 74.22 35.17C74.38 35.28 74.65 35.37 74.83 35.42C74.76 36.44 74.56 36.7 73.84 36.7C73.64 36.7 72.34 36.7 72.14 36.7C71.23 36.7 70.99 36.52 70.99 35.82V33.85ZM66.72 32.14H74.26V33.89H66.72V33.38H73.55V32.65H66.72V32.14ZM67.77 33.85H68.46V36.27L67.77 36.34V33.85ZM66.01 27.97H70.02V28.5H66.01V27.97ZM70.52 27.97H74.56V28.5H70.52V27.97ZM66.35 28.96H69.81V30.75H69.14V29.42H67.01V30.77H66.35V28.96ZM70.75 28.96H74.27V30.75H73.59V29.42H71.41V30.77H70.75V28.96ZM67.42 29.86L67.82 29.55C68.11 29.79 68.46 30.14 68.61 30.38L68.21 30.74C68.05 30.48 67.72 30.12 67.42 29.86ZM71.82 29.87L72.21 29.54C72.53 29.77 72.9 30.12 73.07 30.38L72.67 30.74C72.5 30.48 72.15 30.12 71.82 29.87ZM103.35 32.42H104.07V36.8H103.35V32.42ZM103.27 27.58L104 27.85C103.55 28.58 102.99 29.45 102.54 29.99L102.01 29.75C102.44 29.18 102.98 28.24 103.27 27.58ZM104.64 28.72L105.35 29.04C104.54 30.21 103.43 31.66 102.54 32.54L102.01 32.25C102.88 31.34 104 29.83 104.64 28.72ZM101.41 29.62L101.78 29.13C102.43 29.63 103.2 30.35 103.55 30.83L103.15 31.41C102.8 30.9 102.05 30.14 101.41 29.62ZM104.36 31L104.93 30.72C105.47 31.39 106.04 32.29 106.26 32.89L105.65 33.22C105.44 32.62 104.89 31.69 104.36 31ZM101.45 32.07C102.47 32.04 104.02 31.97 105.55 31.9L105.54 32.57C104.1 32.66 102.6 32.73 101.54 32.79L101.45 32.07ZM104.5 33.61L105.11 33.37C105.58 34.13 106.06 35.1 106.27 35.74L105.61 36.02C105.42 35.37 104.94 34.36 104.5 33.61ZM102.17 33.42L102.88 33.56C102.63 34.5 102.24 35.43 101.79 36.04C101.65 35.94 101.33 35.79 101.15 35.73C101.62 35.14 101.97 34.28 102.17 33.42ZM98.89 32.39H99.59V36.8H98.89V32.39ZM98.77 27.59L99.48 27.86C99.05 28.58 98.5 29.46 98.06 30L97.54 29.77C97.96 29.19 98.49 28.25 98.77 27.59ZM100.02 28.7L100.71 29.01C99.97 30.16 98.92 31.6 98.09 32.47L97.58 32.19C98.4 31.29 99.43 29.79 100.02 28.7ZM96.97 29.68L97.34 29.17C97.97 29.66 98.7 30.35 99.02 30.83L98.64 31.42C98.31 30.93 97.59 30.19 96.97 29.68ZM99.8 31.08L100.36 30.82C100.8 31.48 101.26 32.36 101.44 32.91L100.83 33.22C100.66 32.66 100.22 31.75 99.8 31.08ZM96.96 32.06C97.95 32.04 99.4 32 100.84 31.95L100.83 32.62C99.46 32.68 98.05 32.73 97.04 32.76L96.96 32.06ZM100.01 33.57L100.61 33.36C100.91 33.89 101.22 34.59 101.35 35.04L100.72 35.28C100.6 34.81 100.28 34.1 100.01 33.57ZM97.68 33.34L98.37 33.46C98.21 34.44 97.92 35.38 97.54 36.01C97.39 35.92 97.07 35.79 96.89 35.73C97.3 35.13 97.55 34.23 97.68 33.34Z" fill="#A5A5A5"/>
</svg>
