<svg width="28" height="30" viewBox="0 0 28 30" fill="none" xmlns="http://www.w3.org/2000/svg">
<path d="M26.25 0.00157834C26.25 0.00157834 23.2072 -0.089528 21.9931 1.11263C20.825 2.26813 20.3438 3.15252 20.3438 5.55684H0L3.04938 16.2541C3.05594 16.2718 3.07125 16.2874 3.07781 16.3029C3.59188 17.7629 4.93281 18.8139 6.53187 18.8761L6.56031 18.8895H20.7791V19.3339C20.7791 19.3339 20.7812 20.0005 20.3438 20.8894C19.9062 21.7782 19.6875 22.2226 17.9375 22.2226H3.71875C1.53125 22.2226 1.53125 25.5558 3.71875 25.5558H17.7188C20.3438 25.5558 22.3125 24.0003 22.9688 22.4448C23.625 20.8894 23.625 19.5561 23.625 19.5561V5.55684C23.625 4.39246 24.1259 3.33474 25.1562 3.33474H26.3594C26.7945 3.33474 27.2118 3.15915 27.5195 2.84661C27.8271 2.53406 28 2.11016 28 1.66816C28 1.22615 27.8271 0.802252 27.5195 0.489708C27.2118 0.177164 26.7945 0.00157834 26.3594 0.00157834H26.25ZM17.5 25.5558C16.1875 25.5558 15.3125 26.4446 15.3125 27.7779C15.3125 29.1112 16.1875 30 17.5 30C18.8125 30 19.6875 29.1112 19.6875 27.7779C19.6875 26.4446 18.8125 25.5558 17.5 25.5558ZM6.5625 25.5558C5.25 25.5558 4.375 26.4446 4.375 27.7779C4.375 29.1112 5.25 30 6.5625 30C7.875 30 8.75 29.1112 8.75 27.7779C8.75 26.4446 7.875 25.5558 6.5625 25.5558Z" fill="#A5A5A5"/>
</svg>
